<?xml version="1.0" encoding="utf-8"?>
<!-- Generator: Adobe Illustrator 25.3.1, SVG Export Plug-In . SVG Version: 6.00 Build 0)  -->
<svg version="1.1" id="Ebene_1" xmlns="http://www.w3.org/2000/svg" xmlns:xlink="http://www.w3.org/1999/xlink" x="0px" y="0px"
	 viewBox="0 0 55 65" style="enable-background:new 0 0 55 65;" xml:space="preserve">
<style type="text/css">
	.st0{fill:#FFFFFF;}
	.st1{fill:#9E9E9E;}
</style>
<rect class="st0" width="55" height="65"/>
<g>
	<path class="st1" d="M16.2,26.4l4.1-12.4h2.2l4.1,12.4h-2l-1.1-3.6h-4.3l-1.1,3.6H16.2z M20.1,19.6l-0.5,1.7h3.4l-0.5-1.7
		c-0.2-0.7-0.4-1.4-0.6-2.1s-0.4-1.4-0.6-2.1h-0.1c-0.2,0.7-0.4,1.4-0.6,2.1S20.4,18.9,20.1,19.6z"/>
	<path class="st1" d="M28.8,26.4V13.9h3.7c0.6,0,1.2,0.1,1.7,0.2c0.5,0.1,1,0.3,1.4,0.5c0.4,0.2,0.7,0.6,0.9,0.9s0.3,0.9,0.3,1.4
		c0,0.6-0.2,1.2-0.5,1.7c-0.4,0.5-0.9,0.9-1.6,1v0.1c0.9,0.1,1.6,0.5,2.1,0.9c0.5,0.5,0.7,1.2,0.7,2c0,0.6-0.1,1.2-0.3,1.6
		c-0.2,0.5-0.6,0.8-1,1.1c-0.4,0.3-0.9,0.5-1.5,0.7s-1.2,0.2-1.9,0.2H28.8z M30.7,19.1h1.6c1,0,1.7-0.2,2.1-0.5
		c0.4-0.3,0.6-0.8,0.6-1.4c0-0.6-0.2-1.1-0.7-1.3s-1.1-0.4-2-0.4h-1.6V19.1z M30.7,24.8h1.9c1,0,1.7-0.2,2.3-0.5
		c0.5-0.3,0.8-0.9,0.8-1.7c0-0.7-0.3-1.2-0.8-1.5c-0.5-0.3-1.3-0.5-2.3-0.5h-1.9V24.8z"/>
	<path class="st1" d="M17.4,44.4V31.9h3.7c0.6,0,1.2,0.1,1.7,0.2c0.5,0.1,1,0.3,1.4,0.5c0.4,0.2,0.7,0.6,0.9,0.9
		c0.2,0.4,0.3,0.9,0.3,1.4c0,0.6-0.2,1.2-0.5,1.7c-0.4,0.5-0.9,0.9-1.6,1v0.1c0.9,0.1,1.6,0.5,2.1,1s0.7,1.2,0.7,2
		c0,0.6-0.1,1.2-0.3,1.6s-0.6,0.8-1,1.1c-0.4,0.3-0.9,0.5-1.5,0.7c-0.6,0.1-1.2,0.2-1.9,0.2H17.4z M19.3,37.1h1.6
		c1,0,1.7-0.2,2.1-0.5c0.4-0.3,0.6-0.8,0.6-1.4c0-0.6-0.2-1.1-0.7-1.3c-0.4-0.3-1.1-0.4-2-0.4h-1.6V37.1z M19.3,42.8h1.9
		c1,0,1.7-0.2,2.3-0.5c0.5-0.3,0.8-0.9,0.8-1.7c0-0.7-0.3-1.2-0.8-1.5c-0.5-0.3-1.3-0.5-2.3-0.5h-1.9V42.8z"/>
	<path class="st1" d="M27.6,44.4l4.1-12.4h2.2L38,44.4h-2l-1.1-3.6h-4.3l-1.1,3.6H27.6z M31.5,37.6L31,39.3h3.4L34,37.6
		c-0.2-0.7-0.4-1.4-0.6-2.1c-0.2-0.7-0.4-1.4-0.6-2.1h-0.1c-0.2,0.7-0.4,1.4-0.6,2.1S31.8,36.9,31.5,37.6z"/>
</g>
</svg>
